[Header]
FileType HTR
DataType HTRS
FileVersion 1
NumSegments 64
NumFrames 3
DataFrameRate 24
EulerRotationOrder ZYX
CalibrationUnits mm
RotationUnits Degrees
GlobalAxisofGravity Y
BoneLengthAxis Y
ScaleFactor 1.0
[SegmentNames&Hierarchy]
Hips	GLOBAL
Spine	Hips
Spine1	Spine
Spine2	Spine1
Neck	Spine2
Head	Neck
LeftEye	Head
RightEye	Head
LeftShoulder	Spine2
LeftArm	LeftShoulder
LeftForeArm	LeftArm
LeftHand	LeftForeArm
LeftHandThumb1	LeftHand
LeftHandThumb2	LeftHandThumb1
LeftHandThumb3	LeftHandThumb2
LeftHandThumb4	LeftHandThumb3
LeftHandIndex1	LeftHand
LeftHandIndex2	LeftHandIndex1
LeftHandIndex3	LeftHandIndex2
LeftHandIndex4	LeftHandIndex3
LeftHandMiddle1	LeftHand
LeftHandMiddle2	LeftHandMiddle1
LeftHandMiddle3	LeftHandMiddle2
LeftHandMiddle4	LeftHandMiddle3
LeftHandRing1	LeftHand
LeftHandRing2	LeftHandRing1
LeftHandRing3	LeftHandRing2
LeftHandRing4	LeftHandRing3
LeftHandPinky1	LeftHand
LeftHandPinky2	LeftHandPinky1
LeftHandPinky3	LeftHandPinky2
LeftHandPinky4	LeftHandPinky3
RightShoulder	Spine2
RightArm	RightShoulder
RightForeArm	RightArm
RightHand	RightForeArm
RightHandPinky1	RightHand
RightHandPinky2	RightHandPinky1
RightHandPinky3	RightHandPinky2
RightHandPinky4	RightHandPinky3
RightHandRing1	RightHand
RightHandRing2	RightHandRing1
RightHandRing3	RightHandRing2
RightHandRing4	RightHandRing3
RightHandMiddle1	RightHand
RightHandMiddle2	RightHandMiddle1
RightHandMiddle3	RightHandMiddle2
RightHandMiddle4	RightHandMiddle3
RightHandIndex1	RightHand
RightHandIndex2	RightHandIndex1
RightHandIndex3	RightHandIndex2
RightHandIndex4	RightHandIndex3
RightHandThumb1	RightHand
RightHandThumb2	RightHandThumb1
RightHandThumb3	RightHandThumb2
RightHandThumb4	RightHandThumb3
LeftUpLeg	Hips
LeftLeg	LeftUpLeg
LeftFoot	LeftLeg
LeftToeBase	LeftFoot
RightUpLeg	Hips
RightLeg	RightUpLeg
RightFoot	RightLeg
RightToeBase	RightFoot
[BasePosition]
Hips	0	0	0	0	0	0	1
Spine	0	0	0	0	0	0	1
Spine1	0	0	0	0	0	0	1
Spine2	0	0	0	0	0	0	1
Neck	0	0	0	0	0	0	1
Head	0	0	0	0	0	0	1
LeftEye	0	0	0	0	0	0	1
RightEye	0	0	0	0	0	0	1
LeftShoulder	0	0	0	0	0	0	1
LeftArm	0	0	0	0	0	0	1
LeftForeArm	0	0	0	0	0	0	1
LeftHand	0	0	0	0	0	0	1
LeftHandThumb1	0	0	0	0	0	0	1
LeftHandThumb2	0	0	0	0	0	0	1
LeftHandThumb3	0	0	0	0	0	0	1
LeftHandThumb4	0	0	0	0	0	0	1
LeftHandIndex1	0	0	0	0	0	0	1
LeftHandIndex2	0	0	0	0	0	0	1
LeftHandIndex3	0	0	0	0	0	0	1
LeftHandIndex4	0	0	0	0	0	0	1
LeftHandMiddle1	0	0	0	0	0	0	1
LeftHandMiddle2	0	0	0	0	0	0	1
LeftHandMiddle3	0	0	0	0	0	0	1
LeftHandMiddle4	0	0	0	0	0	0	1
LeftHandRing1	0	0	0	0	0	0	1
LeftHandRing2	0	0	0	0	0	0	1
LeftHandRing3	0	0	0	0	0	0	1
LeftHandRing4	0	0	0	0	0	0	1
LeftHandPinky1	0	0	0	0	0	0	1
LeftHandPinky2	0	0	0	0	0	0	1
LeftHandPinky3	0	0	0	0	0	0	1
LeftHandPinky4	0	0	0	0	0	0	1
RightShoulder	0	0	0	0	0	0	1
RightArm	0	0	0	0	0	0	1
RightForeArm	0	0	0	0	0	0	1
RightHand	0	0	0	0	0	0	1
RightHandPinky1	0	0	0	0	0	0	1
RightHandPinky2	0	0	0	0	0	0	1
RightHandPinky3	0	0	0	0	0	0	1
RightHandPinky4	0	0	0	0	0	0	1
RightHandRing1	0	0	0	0	0	0	1
RightHandRing2	0	0	0	0	0	0	1
RightHandRing3	0	0	0	0	0	0	1
RightHandRing4	0	0	0	0	0	0	1
RightHandMiddle1	0	0	0	0	0	0	1
RightHandMiddle2	0	0	0	0	0	0	1
RightHandMiddle3	0	0	0	0	0	0	1
RightHandMiddle4	0	0	0	0	0	0	1
RightHandIndex1	0	0	0	0	0	0	1
RightHandIndex2	0	0	0	0	0	0	1
RightHandIndex3	0	0	0	0	0	0	1
RightHandIndex4	0	0	0	0	0	0	1
RightHandThumb1	0	0	0	0	0	0	1
RightHandThumb2	0	0	0	0	0	0	1
RightHandThumb3	0	0	0	0	0	0	1
RightHandThumb4	0	0	0	0	0	0	1
LeftUpLeg	0	0	0	0	0	0	1
LeftLeg	0	0	0	0	0	0	1
LeftFoot	0	0	0	0	0	0	1
LeftToeBase	0	0	0	0	0	0	1
RightUpLeg	0	0	0	0	0	0	1
RightLeg	0	0	0	0	0	0	1
RightFoot	0	0	0	0	0	0	1
RightToeBase	0	0	0	0	0	0	1
[Hips]
1	4.962709427	933.4868164	18.7368145	9.884970665	-2.706250668	-9.746552467	1.0
2	4.318941116	955.8497314	178.4975281	12.96361923	-5.256777287	-7.601799965	1.0
3	5.937634468	979.3222046	338.5238037	15.13280487	-7.174902916	-3.973943949	1.0
[Spine]
1	0	101.8159943	1.315000057	2.494081497	3.233092785	6.199221611	1.0
2	0	101.8159943	1.315000057	0.9032537341	4.602604389	4.468551159	1.0
3	0	101.8159943	1.315000057	-0.0618438758	6.421590328	1.966955304	1.0
[Spine1]
1	0	100.8349991	-10.00800037	8.217850685	-0.773706615	1.318890214	1.0
2	0	100.8349991	-10.00800037	6.102005959	2.273124695	-0.9664641023	1.0
3	0	100.8349991	-10.00800037	4.174728394	5.800807476	-3.823553801	1.0
[Spine2]
1	0	91	-13.73399925	5.127470016	-1.259088993	5.746160984	1.0
2	0	91	-13.73399925	3.128459215	1.888721466	3.568169117	1.0
3	0	91	-13.73399925	1.39783597	5.492832661	0.7810368538	1.0
[Neck]
1	0	166.7169952	-25.16200066	-10.43344307	0.6357988715	-4.111566544	1.0
2	0	166.7169952	-25.16200066	-4.074216843	-0.2567825019	-2.879972696	1.0
3	0	166.7169952	-25.16200066	-1.406947374	-1.600705028	-1.492542505	1.0
[Head]
1	0	96.17900085	16.84999847	-20.73631668	3.731156349	0.528855741	1.0
2	0	96.17900085	16.84999847	-25.21058655	0.01526549645	1.891995788	1.0
3	0	96.17900085	16.84999847	-25.6057148	-6.033572197	4.568409443	1.0
[LeftEye]
1	30.6760006	64.09500122	92.83599854	0	0	0	1.0
2	30.6760006	64.09500122	92.83599854	0	0	0	1.0
3	30.6760006	64.09500122	92.83599854	0	0	0	1.0
[RightEye]
1	-30.6760006	64.09500122	92.83499908	0	0	0	1.0
2	-30.6760006	64.09500122	92.83499908	0	0	0	1.0
3	-30.6760006	64.09500122	92.83499908	0	0	0	1.0
[LeftShoulder]
1	45.70400238	109.4599991	-26.28000069	0.72740376	-9.996408463	-14.50092983	1.0
2	45.70400238	109.4599991	-26.28000069	-0.7997459769	-6.189551353	-10.54860306	1.0
3	45.70400238	109.4599991	-26.28000069	-1.248296618	-5.348557949	-8.001099586	1.0
[LeftArm]
1	105.923996	-5.24600029	-22.32099915	-1.186660767	30.69407654	-63.31860733	1.0
2	105.923996	-5.24600029	-22.32099915	8.245093346	34.44632339	-57.09168625	1.0
3	105.923996	-5.24600029	-22.32099915	17.16653824	39.67071533	-45.38554382	1.0
[LeftForeArm]
1	278.414978	-0.0009999999311	0	-7.729494246e-05	-83.34682465	-8.030565368e-05	1.0
2	278.414978	-0.0009999999311	0	-0.0001108836586	-80.61161041	-9.593553841e-05	1.0
3	278.414978	-0.0009999999311	0	0.0001156952931	-86.8975296	-0.0002431829198	1.0
[LeftHand]
1	283.2879944	0	0	13.04037285	-6.343972683	-8.62033844	1.0
2	283.2879944	0	0	0.4626792967	-5.750773907	-5.136776447	1.0
3	283.2879944	0	0	-12.44063091	0.2935670316	-4.699512482	1.0
[LeftHandThumb1]
1	24.6609993	-15.75	26.8239994	12.366189	-3.402411222	9.637263298	1.0
2	24.6609993	-15.75	26.8239994	12.36618042	-3.402404308	9.637263298	1.0
3	24.6609993	-15.75	26.8239994	12.36618519	-3.402405024	9.637268066	1.0
[LeftHandThumb2]
1	32.29800034	-18.64699936	18.64699936	6.041782856	17.12591743	7.402262688	1.0
2	32.29800034	-18.64699936	18.64699936	4.713812351	12.0584507	12.12124443	1.0
3	32.29800034	-18.64699936	18.64699936	2.77610302	7.975931168	16.42282104	1.0
[LeftHandThumb3]
1	26.52600098	-15.31499958	15.31499958	-1.849272728	-7.259412766	-3.505587101	1.0
2	26.52600098	-15.31499958	15.31499958	0.8464448452	-11.37919521	-2.062268734	1.0
3	26.52600098	-15.31499958	15.31499958	3.74449873	-14.15674973	-2.620091915	1.0
[LeftHandThumb4]
1	19.54599953	-11.28499985	11.28499985	0	0	0	1.0
2	19.54599953	-11.28499985	11.28499985	0	0	0	1.0
3	19.54599953	-11.28499985	11.28499985	0	0	0	1.0
[LeftHandIndex1]
1	91.09299469	-5.170999527	22.60099792	-10.79267502	6.663580418	-85.93964386	1.0
2	91.09299469	-5.170999527	22.60099792	-8.878615379	7.134142399	-71.02064514	1.0
3	91.09299469	-5.170999527	22.60099792	-7.02756691	7.046900272	-58.41647339	1.0
[LeftHandIndex2]
1	36.76399994	0	0	-4.328944206	5.641928196	-68.10301208	1.0
2	36.76399994	0	0	-3.454981089	5.348136425	-58.99539185	1.0
3	36.76399994	0	0	-2.895099401	5.072647095	-52.83610153	1.0
[LeftHandIndex3]
1	28.83100128	0	0	-2.468491554	4.49644804	-54.95292664	1.0
2	28.83100128	0	0	-1.767858624	3.918713331	-45.87886429	1.0
3	28.83100128	0	0	-1.349730253	3.468299627	-39.74528885	1.0
[LeftHandIndex4]
1	23.92700005	0	0	0	0	0	1.0
2	23.92700005	0	0	0	0	0	1.0
3	23.92700005	0	0	0	0	0	1.0
[LeftHandMiddle1]
1	95.33399963	0	0	-11.09007072	6.453288078	-88.92919159	1.0
2	95.33399963	0	0	-9.605701447	7.573455811	-76.06066132	1.0
3	95.33399963	0	0	-8.27454567	8.216143608	-65.75644684	1.0
[LeftHandMiddle2]
1	36.98199844	0	0	-3.338065386	5.189430237	-56.83252335	1.0
2	36.98199844	0	0	-2.778674364	4.905042171	-50.61553955	1.0
3	36.98199844	0	0	-2.512913465	4.741548538	-47.52589798	1.0
[LeftHandMiddle3]
1	29.50900078	0	0	-2.8584342	5.104153156	-59.09562683	1.0
2	29.50900078	0	0	-2.103273869	4.588653088	-49.86118317	1.0
3	29.50900078	0	0	-1.637272239	4.167354584	-43.52295685	1.0
[LeftHandMiddle4]
1	28.3390007	0	0	0	0	0	1.0
2	28.3390007	0	0	0	0	0	1.0
3	28.3390007	0	0	0	0	0	1.0
[LeftHandRing1]
1	91.04499817	-0.4390000105	-18.65100098	-10.79845047	5.418290615	-87.37371826	1.0
2	91.04499817	-0.4390000105	-18.65100098	-9.323371887	6.185856342	-74.89770508	1.0
3	91.04499817	-0.4390000105	-18.65100098	-8.030930519	6.483653069	-65.05220795	1.0
[LeftHandRing2]
1	31.54000092	0	0	-3.238913774	5.68350172	-66.87045288	1.0
2	31.54000092	0	0	-2.45813632	5.236691475	-57.75166702	1.0
3	31.54000092	0	0	-1.974052787	4.866137505	-51.57737732	1.0
[LeftHandRing3]
1	29.37700081	0	0	-2.700796604	5.435502052	-64.74314117	1.0
2	29.37700081	0	0	-1.965177417	4.913876534	-55.63803101	1.0
3	29.37700081	0	0	-1.518150449	4.497174263	-49.47370529	1.0
[LeftHandRing4]
1	26.47500038	0	0	0	0	0	1.0
2	26.47500038	0	0	0	0	0	1.0
3	26.47500038	0	0	0	0	0	1.0
[LeftHandPinky1]
1	80.77799988	-4.887000084	-38.06099701	-12.43869019	5.13978529	-99.62610626	1.0
2	80.77799988	-4.887000084	-38.06099701	-11.11905861	6.402226448	-87.1002655	1.0
3	80.77799988	-4.887000084	-38.06099701	-9.868583679	7.123404026	-77.0390625	1.0
[LeftHandPinky2]
1	36	0	0	-3.740625858	4.879920483	-66.70903778	1.0
2	36	0	0	-2.923163414	4.505478382	-57.67601013	1.0
3	36	0	0	-2.413024902	4.184836864	-51.6280899	1.0
[LeftHandPinky3]
1	21.14200211	0	0	-3.232890368	5.531099796	-59.37930298	1.0
2	21.14200211	0	0	-2.453229666	5.078458786	-50.34122467	1.0
3	21.14200211	0	0	-1.975252867	4.709199429	-44.29134369	1.0
[LeftHandPinky4]
1	19.75699997	0	0	0	0	0	1.0
2	19.75699997	0	0	0	0	0	1.0
3	19.75699997	0	0	0	0	0	1.0
[RightShoulder]
1	-45.70000076	109.4620056	-26.28000069	-3.550655127	12.45032406	8.752963066	1.0
2	-45.70000076	109.4620056	-26.28000069	-3.685680866	18.13688087	6.338286877	1.0
3	-45.70000076	109.4620056	-26.28000069	-3.928910732	19.71194077	3.381897688	1.0
[RightArm]
1	-105.9280014	-5.248000145	-22.32099915	18.0759964	17.03990364	41.82825089	1.0
2	-105.9280014	-5.248000145	-22.32099915	10.72671986	30.34050369	44.91837311	1.0
3	-105.9280014	-5.248000145	-22.32099915	0.4897186756	35.5970459	43.41827011	1.0
[RightForeArm]
1	-278.414978	0	0	-2.515469168e-05	83.22371674	-8.267001249e-06	1.0
2	-278.414978	0	0	-1.03021182e-06	71.94156647	-3.562770189e-06	1.0
3	-278.414978	0	0	2.958463301e-05	69.88280487	-7.219310305e-07	1.0
[RightHand]
1	-283.2879944	0	0.0009999999311	-12.83817482	12.17337227	-22.67873764	1.0
2	-283.2879944	0	0.0009999999311	-12.14226913	8.010531425	-19.83965874	1.0
3	-283.2879944	0	0.0009999999311	-13.75978756	0.9401602745	-9.163171768	1.0
[RightHandPinky1]
1	-80.76699829	-4.885000229	-38.06000137	-11.67009163	-8.165140152	83.06808472	1.0
2	-80.76699829	-4.885000229	-38.06000137	-10.63466835	-5.331596851	85.14936829	1.0
3	-80.76699829	-4.885000229	-38.06000137	-10.67749119	1.109718204	86.57958984	1.0
[RightHandPinky2]
1	-36	0	0.0009999999311	-5.496891975	-5.22379446	84.77264404	1.0
2	-36	0	0.0009999999311	-5.483973026	-5.223293781	84.64303589	1.0
3	-36	0	0.0009999999311	-5.481214523	-5.223185062	84.61528778	1.0
[RightHandPinky3]
1	-21.14200211	0	0	-2.709448338	-2.123212814	51.58636475	1.0
2	-21.14200211	0	0	-2.696754456	-2.114777088	51.43384933	1.0
3	-21.14200211	0	0	-2.631439924	-2.070654392	50.64624023	1.0
[RightHandPinky4]
1	-19.75699997	0	0	0	0	0	1.0
2	-19.75699997	0	0	0	0	0	1.0
3	-19.75699997	0	0	0	0	0	1.0
[RightHandRing1]
1	-91.03599548	-0.4390000105	-18.65100098	-10.02538967	-7.117293835	80.09994507	1.0
2	-91.03599548	-0.4390000105	-18.65100098	-10.20923328	-6.237513542	81.97763062	1.0
3	-91.03599548	-0.4390000105	-18.65100098	-10.2973423	-4.228662491	83.54851532	1.0
[RightHandRing2]
1	-31.54000092	0	0	-3.565955639	-5.824660301	70.48638153	1.0
2	-31.54000092	0	0	-3.52604866	-5.808666229	70.05091095	1.0
3	-31.54000092	0	0	-3.62650466	-5.848229408	71.14439392	1.0
[RightHandRing3]
1	-29.37700081	0	0	-1.958741546	-2.998648643	54.49094391	1.0
2	-29.37700081	0	0	-1.925562739	-2.969471931	54.04604721	1.0
3	-29.37700081	0	0	-1.998797774	-3.033270836	55.02414703	1.0
[RightHandRing4]
1	-26.47500038	0	0	0	0	0	1.0
2	-26.47500038	0	0	0	0	0	1.0
3	-26.47500038	0	0	0	0	0	1.0
[RightHandMiddle1]
1	-95.32500458	0	0	-8.229775429	-6.729773521	65.55664063	1.0
2	-95.32500458	0	0	-8.808125496	-5.02616787	70.01868439	1.0
3	-95.32500458	0	0	-9.482769012	-0.7786752582	75.52609253	1.0
[RightHandMiddle2]
1	-36.98199844	0	0	-4.085411549	-5.45953989	64.71591187	1.0
2	-36.98199844	0	0	-4.035335541	-5.444964886	64.19932556	1.0
3	-36.98199844	0	0	-4.186209202	-5.48739624	65.75157928	1.0
[RightHandMiddle3]
1	-29.50900078	0	0	-2.689966202	-4.842120647	57.0083313	1.0
2	-29.50900078	0	0	-2.644118309	-4.813409805	56.46230698	1.0
3	-29.50900078	0	0	-2.744270325	-4.875370979	57.65063095	1.0
[RightHandMiddle4]
1	-28.3390007	0	0.0009999999311	0	0	0	1.0
2	-28.3390007	0	0.0009999999311	0	0	0	1.0
3	-28.3390007	0	0.0009999999311	0	0	0	1.0
[RightHandIndex1]
1	-91.08300018	-5.167999744	22.60099792	-5.026231289	-6.70248127	61.28525162	1.0
2	-91.08300018	-5.167999744	22.60099792	-4.01816082	-5.146699905	63.30545425	1.0
3	-91.08300018	-5.167999744	22.60099792	-1.082046509	-1.520884156	64.53656006	1.0
[RightHandIndex2]
1	-36.76399994	0	0	-3.441712379	-5.341930389	58.85725403	1.0
2	-36.76399994	0	0	-3.392480612	-5.320515633	58.32741165	1.0
3	-36.76399994	0	0	-3.319294453	-5.287637234	57.53570175	1.0
[RightHandIndex3]
1	-28.83100128	0	0	-2.081529379	-3.149471521	49.40855789	1.0
2	-28.83100128	0	0	-2.041499615	-3.11491847	48.8810463	1.0
3	-28.83100128	0	0	-1.982286453	-3.062589169	48.09283066	1.0
[RightHandIndex4]
1	-23.92700005	0	0	0	0	0	1.0
2	-23.92700005	0	0	0	0	0	1.0
3	-23.92700005	0	0	0	0	0	1.0
[RightHandThumb1]
1	-24.64799881	-15.72700024	26.82600021	4.965477943	-5.282457829	-10.26551914	1.0
2	-24.64799881	-15.72700024	26.82600021	3.605604172	-3.057055235	-9.304743767	1.0
3	-24.64799881	-15.72700024	26.82600021	2.157220602	-0.5507759452	-8.324402809	1.0
[RightHandThumb2]
1	-32.29800034	-18.64699936	18.64699936	4.450273991	-22.70461082	-4.580922127	1.0
2	-32.29800034	-18.64699936	18.64699936	4.450273991	-22.70461082	-4.580922127	1.0
3	-32.29800034	-18.64699936	18.64699936	4.450273991	-22.70461082	-4.580922127	1.0
[RightHandThumb3]
1	-26.52600098	-15.31399918	15.31399918	-12.58338261	9.9640131	3.83227396	1.0
2	-26.52600098	-15.31399918	15.31399918	-12.58338261	9.9640131	3.83227396	1.0
3	-26.52600098	-15.31399918	15.31399918	-12.58338261	9.9640131	3.83227396	1.0
[RightHandThumb4]
1	-19.54599953	-11.28499985	11.28499985	0	0	0	1.0
2	-19.54599953	-11.28499985	11.28499985	0	0	0	1.0
3	-19.54599953	-11.28499985	11.28499985	0	0	0	1.0
[LeftUpLeg]
1	82.07800293	-67.51699829	-15.99599934	-59.78561783	4.634471893	10.08850384	1.0
2	82.07800293	-67.51699829	-15.99599934	-71.08482361	6.703517914	7.44380331	1.0
3	82.07800293	-67.51699829	-15.99599934	-74.31548309	6.235466957	3.389600515	1.0
[LeftLeg]
1	0	-443.7049866	2.845999956	131.175827	0.2508185506	-0.562751174	1.0
2	0	-443.7049866	2.845999956	118.3916321	2.939562559	-5.413823605	1.0
3	0	-443.7049866	2.845999956	96.30130768	1.441418409	-2.65894413	1.0
[LeftFoot]
1	0	-444.2789917	-29.8219986	13.94382286	0.7706746459	-1.889615536	1.0
2	0	-444.2789917	-29.8219986	8.737841606	0.9747655392	-0.6235876083	1.0
3	0	-444.2789917	-29.8219986	3.224298477	1.145330429	-0.054482501	1.0
[LeftToeBase]
1	0	-87.28699493	107.1060028	0.0950518772	-3.976807932e-07	3.593665951e-07	1.0
2	0	-87.28699493	107.1060028	-0.4116545022	7.473082064e-07	-7.00634871e-07	1.0
3	0	-87.28699493	107.1060028	-0.2053669542	9.522684508e-08	-2.18672298e-07	1.0
[RightUpLeg]
1	-82.07800293	-67.51699829	-15.99599934	-22.5965538	0.1094183251	18.30334282	1.0
2	-82.07800293	-67.51699829	-15.99599934	-9.925628662	-7.713861465	13.13764381	1.0
3	-82.07800293	-67.51699829	-15.99599934	0.7929950356	-16.55014801	3.546085596	1.0
[RightLeg]
1	0	-443.7049866	2.861999989	43.15673828	4.412547588	-3.120093584	1.0
2	0	-443.7049866	2.861999989	30.14311028	7.351906776	-1.686750054	1.0
3	0	-443.7049866	2.861999989	18.44959259	9.489572525	-0.0700551495	1.0
[RightFoot]
1	0	-444.2770081	-29.83799934	-29.5647831	-0.8791633248	-4.433108807	1.0
2	0	-444.2770081	-29.83799934	-24.31227112	4.921898365	-1.540879369	1.0
3	0	-444.2770081	-29.83799934	-4.013751984	11.28348255	3.868308783	1.0
[RightToeBase]
1	0	-87.28699493	107.1060028	-3.122642756	-4.978605261e-07	-2.624745719e-07	1.0
2	0	-87.28699493	107.1060028	-7.704127312	-0.1145202592	-0.9099463224	1.0
3	0	-87.28699493	107.1060028	-19.52866364	-1.902151585	-6.856250763	1.0
[EndOfFile]
